# xmcd
#
# Track frame offsets: 
#        150
#        15939
#        29753
#        48203
#        62021
#        81673
#        99614
#        112738
#        129403
#        158946
#        171579
#        186560
#
# Disc length: 2724 seconds
#
# Revision: 0
# Processed by: cddbd v1.5.2PL0 Copyright (c) Steve Scherf et al.
# Submitted via: ExactAudioCopy v1.0b3
#
DISCID=a10aa20c
DTITLE=Paul "Lil Buck" Sinegal - Greatest Hits Vol. 1
DYEAR=2013
DGENRE=Blues
TTITLE0=Monkey in a Sack
TTITLE1=Winding Roads and Pine Trees
TTITLE2=Bad Situation
TTITLE3=Cat Scream
TTITLE4=Run Down Cadillac
TTITLE5=Shakin' the Zydeco
TTITLE6=You Got the Power
TTITLE7=Don't Tell Me About Down
TTITLE8=The Blues Is Killing Me
TTITLE9=Cats Back
TTITLE10=If You Want Me to Leave
TTITLE11=Woman
EXTD=
EXTT0=
EXTT1=
EXTT2=
EXTT3=
EXTT4=
EXTT5=
EXTT6=
EXTT7=
EXTT8=
EXTT9=
EXTT10=
EXTT11=
PLAYORDER=
